<svg version="1.1" id="Layer_1" xmlns="http://www.w3.org/2000/svg" xmlns:xlink="http://www.w3.org/1999/xlink" x="0px" y="0px"
	 width="100%" viewBox="0 0 1080 1080" enable-background="new 0 0 1080 1080" xml:space="preserve">
<path fill="#45718C" opacity="1.000000" stroke="none" 
	d="
M598.000000,1081.000000 
	C398.689606,1081.000000 199.879227,1081.000000 1.034416,1081.000000 
	C1.034416,721.064514 1.034416,361.128967 1.034416,1.096730 
	C360.893951,1.096730 720.787903,1.096730 1080.840942,1.096730 
	C1080.840942,360.999939 1080.840942,720.999939 1080.840942,1081.000000 
	C920.128479,1081.000000 759.314270,1081.000000 598.000000,1081.000000 
M822.500000,302.997650 
	C730.416748,302.997650 638.333496,302.997650 546.390137,302.997650 
	C546.390137,429.313477 546.390137,554.876892 546.390137,680.801941 
	C548.418213,680.801941 550.063599,680.802002 551.708984,680.802002 
	C673.708496,680.802002 795.708069,680.772583 917.707397,680.908447 
	C922.621460,680.913940 923.726196,679.441284 923.721313,674.728455 
	C923.595154,552.729065 923.621765,430.729523 923.621948,308.730011 
	C923.621948,306.949036 923.622009,305.168060 923.622009,302.997650 
	C889.788452,302.997650 856.644226,302.997650 822.500000,302.997650 
M264.483429,299.989685 
	C255.486160,299.989746 246.488907,299.986328 237.491638,299.990601 
	C212.967926,300.002197 197.166031,315.751007 197.131821,340.291107 
	C197.094650,366.949127 197.459045,393.614166 196.915894,420.261230 
	C196.742218,428.781769 195.173660,437.553589 192.587967,445.683990 
	C187.955688,460.249695 178.413193,471.521118 165.768845,480.160217 
	C155.454483,487.207397 155.378769,495.917969 165.447189,503.430939 
	C165.714264,503.630219 165.982971,503.827332 166.252655,504.023041 
	C187.059875,519.121216 197.230286,539.543091 197.137772,565.230347 
	C197.042969,591.554871 197.058929,617.880066 197.144562,644.204651 
	C197.216522,666.323120 212.684296,682.723755 234.660950,683.542603 
	C247.472412,684.019958 260.318024,683.792053 273.143890,683.596252 
	C281.290710,683.471924 286.737671,677.936768 286.590759,670.574829 
	C286.444794,663.259888 280.769684,658.092224 272.653839,658.049805 
	C261.324524,657.990479 249.994583,658.043396 238.664932,658.030151 
	C227.161453,658.016663 222.742050,653.559753 222.736069,641.933289 
	C222.722458,615.441833 222.845367,588.949768 222.693619,562.459167 
	C222.544662,536.455688 213.359818,514.002014 195.479599,495.108795 
	C194.482285,494.055023 193.575470,492.915619 192.578262,491.760132 
	C193.494110,490.737396 194.131149,489.974121 194.821457,489.262573 
	C213.483383,470.027557 222.720459,446.985809 222.728348,420.212860 
	C222.730453,413.048492 222.733429,405.884155 222.733978,398.719788 
	C222.735474,379.059479 222.704636,359.399109 222.750046,339.738892 
	C222.772293,330.104309 227.148987,325.816681 236.867615,325.728729 
	C240.532806,325.695587 244.198532,325.723175 247.864014,325.719086 
	C256.361176,325.709625 264.862854,325.865234 273.354218,325.637817 
	C281.226562,325.426941 286.586548,320.069580 286.604889,312.902100 
	C286.623596,305.590271 280.889648,300.147339 272.972229,299.998596 
	C270.473877,299.951660 267.973969,299.990234 264.483429,299.989685 
M401.711426,402.500122 
	C401.707642,381.002197 401.827545,359.503326 401.665344,338.006622 
	C401.502228,316.390289 385.054199,300.103607 363.531372,300.000916 
	C351.199493,299.942078 338.866974,299.971680 326.534912,300.013000 
	C324.886383,300.018524 323.170227,300.088593 321.602936,300.538361 
	C315.468018,302.298889 311.628876,308.056854 312.296082,314.226227 
	C313.004456,320.776550 318.053162,325.490051 325.307098,325.628052 
	C337.301758,325.856201 349.303619,325.691589 361.302368,325.725250 
	C371.935028,325.755066 376.078400,329.910553 376.087982,340.593262 
	C376.112366,367.757385 375.945068,394.922791 376.160248,422.085266 
	C376.363434,447.734894 385.571655,469.861908 403.219940,488.478668 
	C404.214447,489.527740 405.128235,490.653320 406.177948,491.856049 
	C405.473480,492.719971 405.004669,493.394196 404.439178,493.974152 
	C384.928009,513.983826 375.792236,538.011597 376.049896,565.895203 
	C376.280853,590.890747 376.098633,615.890137 376.093414,640.887817 
	C376.090698,653.926147 372.050720,658.024353 359.204651,658.030762 
	C348.039032,658.036377 336.873322,658.055542 325.707794,658.028076 
	C320.185333,658.014465 316.005066,660.337158 313.532990,665.253418 
	C309.188904,673.892456 315.338867,683.359924 325.655640,683.588257 
	C337.315613,683.846313 348.985535,683.694702 360.650940,683.662903 
	C385.598907,683.594849 401.681335,667.558228 401.706879,642.710632 
	C401.733734,616.546387 401.667664,590.382080 401.729370,564.218018 
	C401.788544,539.116272 412.016907,519.153076 432.316833,504.374176 
	C442.926910,496.649719 442.760986,487.633148 432.070221,479.921509 
	C412.510468,465.812531 402.402740,446.610535 401.759644,422.497650 
	C401.590851,416.169189 401.719391,409.832855 401.711426,402.500122 
M687.918701,763.245972 
	C691.452942,746.865051 684.472534,733.573181 669.331177,730.660522 
	C661.247742,729.105591 652.619080,730.384583 644.264282,730.384583 
	C644.264282,747.496887 644.264282,764.527771 644.264282,781.617920 
	C651.896362,781.617920 659.226257,782.172119 666.438477,781.487671 
	C677.161438,780.469910 684.600952,774.709961 687.918701,763.245972 
M608.175964,744.523132 
	C605.982422,741.427795 604.239441,737.843445 601.510437,735.329346 
	C593.517151,727.965576 580.227844,727.146851 570.743347,732.921936 
	C561.524048,738.535583 556.857971,751.269043 559.794250,762.801453 
	C562.636597,773.964966 570.701660,781.204468 581.290466,782.097412 
	C593.981201,783.167542 603.452209,778.075928 608.027527,767.264343 
	C611.066345,760.083618 610.702698,752.635193 608.175964,744.523132 
M808.834900,762.731201 
	C808.834900,760.943665 808.834900,759.156128 808.834900,757.061340 
	C803.361023,757.061340 798.413147,757.061340 793.170044,757.061340 
	C791.751526,765.545105 799.734375,760.089600 802.334351,763.591003 
	C802.334351,765.770325 802.520447,768.597839 802.241211,771.378662 
	C802.132263,772.464050 801.211731,773.824158 800.260742,774.413086 
	C791.992554,779.533264 778.021423,775.930115 773.358154,767.595947 
	C768.775452,759.405762 769.893738,747.088257 775.784241,740.872253 
	C781.735474,734.592407 792.088501,733.310791 801.186401,738.362488 
	C805.226440,740.605713 806.720886,739.353394 807.900513,735.790649 
	C798.697388,727.619019 783.170410,726.945251 773.436218,734.119263 
	C763.851929,741.182861 760.368286,756.227173 765.702026,767.519348 
	C771.555176,779.911133 786.364502,785.572266 800.604187,780.861206 
	C808.277222,778.322754 808.831116,777.569214 808.833740,769.664612 
	C808.834412,767.666504 808.834595,765.668335 808.834900,762.731201 
M343.916168,776.689453 
	C344.969727,781.692810 348.023438,782.921021 352.956848,781.388550 
	C346.319702,764.851013 339.849792,748.490540 333.060822,732.263611 
	C332.511383,730.950256 329.752716,729.878784 328.061707,729.934814 
	C326.629639,729.982300 324.565704,731.529907 323.969727,732.922302 
	C319.919281,742.385193 316.159973,751.973328 312.354797,761.540161 
	C309.743103,768.106384 307.209015,774.703369 304.587952,781.420654 
	C310.925140,782.277893 311.895905,782.350098 312.837524,777.874939 
	C314.802979,768.533875 320.509644,766.254761 328.934143,767.676270 
	C329.581024,767.785461 330.262299,767.690674 330.927612,767.690674 
	C340.131561,767.690857 340.131561,767.690918 343.916168,776.689453 
M279.478119,738.318115 
	C276.623657,735.941895 274.057770,732.113037 270.857513,731.477234 
	C263.019196,729.919861 254.888046,729.836304 246.356873,729.115967 
	C246.356873,738.856934 246.356857,747.318298 246.356857,755.779663 
	C246.356857,764.381165 246.356873,772.982666 246.356873,781.707520 
	C248.996216,781.707520 250.935593,781.707520 253.313065,781.707520 
	C253.313065,778.651917 253.313385,775.840576 253.313019,773.029236 
	C253.311646,762.552551 253.311554,762.552551 263.515503,762.156555 
	C277.133392,761.628113 283.933594,751.980530 279.478119,738.318115 
M497.836761,777.697388 
	C509.417206,785.029175 522.931335,783.754761 531.473206,773.945984 
	C530.394531,772.867676 529.274963,771.748535 528.315186,770.789062 
	C515.991089,777.829041 507.131958,777.800903 500.704041,771.129272 
	C494.344452,764.528625 493.058716,750.973145 498.699890,743.225952 
	C500.826477,740.305542 504.173187,737.721191 507.522980,736.358521 
	C514.553467,733.498596 521.149048,736.143066 527.298584,740.380798 
	C528.537354,738.559082 529.430725,737.245300 531.176636,734.677673 
	C525.886292,732.724304 521.455444,730.277405 516.751221,729.513367 
	C505.546051,727.693420 495.114716,733.439575 490.717682,742.980774 
	C485.163849,755.032043 487.805054,768.802368 497.836761,777.697388 
M396.401886,773.380249 
	C396.401886,760.993713 396.401886,748.607178 396.401886,735.618530 
	C402.438538,735.618530 407.657104,735.618530 412.950714,735.618530 
	C412.950714,733.412415 412.950714,731.825867 412.950714,730.002502 
	C399.439789,730.002502 386.215942,730.002502 372.540863,730.002502 
	C372.674530,732.023560 372.787781,733.736206 372.929474,735.878784 
	C378.523468,735.878784 383.612244,735.878784 389.291077,735.878784 
	C389.291077,751.372192 389.291077,766.410522 389.291077,781.610291 
	C391.942413,781.610291 393.975769,781.610291 396.401855,781.610291 
	C396.401855,778.955505 396.401855,776.645569 396.401886,773.380249 
M723.001465,738.554199 
	C723.001465,752.839478 723.001465,767.124695 723.001465,781.618530 
	C725.605347,781.618530 727.650391,781.618530 729.795166,781.618530 
	C729.795166,764.233704 729.795166,747.168945 729.795166,730.198486 
	C727.390381,730.198486 725.346985,730.198486 723.001526,730.198486 
	C723.001526,732.946106 723.001526,735.260071 723.001465,738.554199 
M440.919403,762.816223 
	C445.851410,762.816223 450.783447,762.816223 456.085358,762.816223 
	C455.926483,760.558899 455.816956,759.002808 455.704437,757.404480 
	C449.667358,757.404480 444.081451,757.404480 437.102112,757.404480 
	C438.361053,759.730835 439.187500,761.257935 440.919403,762.816223 
z"/>
<path fill="#EFF4F8" opacity="1.000000" stroke="none" 
	d="
M823.000000,302.997650 
	C856.644226,302.997650 889.788452,302.997650 923.622009,302.997650 
	C923.622009,305.168060 923.621948,306.949036 923.621948,308.730011 
	C923.621765,430.729523 923.595154,552.729065 923.721313,674.728455 
	C923.726196,679.441284 922.621460,680.913940 917.707397,680.908447 
	C795.708069,680.772583 673.708496,680.802002 551.708984,680.802002 
	C550.063599,680.802002 548.418213,680.801941 546.390137,680.801941 
	C546.390137,554.876892 546.390137,429.313477 546.390137,302.997650 
	C638.333496,302.997650 730.416748,302.997650 823.000000,302.997650 
M649.568970,641.240356 
	C664.981812,641.240356 680.394592,641.240356 696.335327,641.240356 
	C696.335327,606.163879 696.335327,571.923523 696.335327,537.201782 
	C707.167053,537.201782 717.483276,537.595276 727.757935,537.108826 
	C742.864319,536.393555 758.151733,536.268250 772.982971,533.701538 
	C797.981201,529.375366 819.775757,518.289307 835.143250,497.157349 
	C849.349731,477.621918 853.507568,455.243561 851.820862,431.707336 
	C849.304810,396.601196 832.553101,371.072968 799.716187,356.922729 
	C781.675049,349.148346 762.681274,346.091492 743.194946,345.979645 
	C710.865784,345.794067 678.535095,345.875641 646.205017,345.869781 
	C644.626282,345.869507 643.047546,346.109192 641.470032,346.237061 
	C641.470032,444.738800 641.470032,542.659668 641.470032,641.240112 
	C644.037659,641.240112 646.316101,641.240112 649.568970,641.240356 
z"/>
<path fill="#ECF2F6" opacity="1.000000" stroke="none" 
	d="
M264.979095,299.989685 
	C267.973969,299.990234 270.473877,299.951660 272.972229,299.998596 
	C280.889648,300.147339 286.623596,305.590271 286.604889,312.902100 
	C286.586548,320.069580 281.226562,325.426941 273.354218,325.637817 
	C264.862854,325.865234 256.361176,325.709625 247.864014,325.719086 
	C244.198532,325.723175 240.532806,325.695587 236.867615,325.728729 
	C227.148987,325.816681 222.772293,330.104309 222.750046,339.738892 
	C222.704636,359.399109 222.735474,379.059479 222.733978,398.719788 
	C222.733429,405.884155 222.730453,413.048492 222.728348,420.212860 
	C222.720459,446.985809 213.483383,470.027557 194.821457,489.262573 
	C194.131149,489.974121 193.494110,490.737396 192.578262,491.760132 
	C193.575470,492.915619 194.482285,494.055023 195.479599,495.108795 
	C213.359818,514.002014 222.544662,536.455688 222.693619,562.459167 
	C222.845367,588.949768 222.722458,615.441833 222.736069,641.933289 
	C222.742050,653.559753 227.161453,658.016663 238.664932,658.030151 
	C249.994583,658.043396 261.324524,657.990479 272.653839,658.049805 
	C280.769684,658.092224 286.444794,663.259888 286.590759,670.574829 
	C286.737671,677.936768 281.290710,683.471924 273.143890,683.596252 
	C260.318024,683.792053 247.472412,684.019958 234.660950,683.542603 
	C212.684296,682.723755 197.216522,666.323120 197.144562,644.204651 
	C197.058929,617.880066 197.042969,591.554871 197.137772,565.230347 
	C197.230286,539.543091 187.059875,519.121216 166.252655,504.023041 
	C165.982971,503.827332 165.714264,503.630219 165.447189,503.430939 
	C155.378769,495.917969 155.454483,487.207397 165.768845,480.160217 
	C178.413193,471.521118 187.955688,460.249695 192.587967,445.683990 
	C195.173660,437.553589 196.742218,428.781769 196.915894,420.261230 
	C197.459045,393.614166 197.094650,366.949127 197.131821,340.291107 
	C197.166031,315.751007 212.967926,300.002197 237.491638,299.990601 
	C246.488907,299.986328 255.486160,299.989746 264.979095,299.989685 
z"/>
<path fill="#ECF2F6" opacity="1.000000" stroke="none" 
	d="
M401.711426,403.000122 
	C401.719391,409.832855 401.590851,416.169189 401.759644,422.497650 
	C402.402740,446.610535 412.510468,465.812531 432.070221,479.921509 
	C442.760986,487.633148 442.926910,496.649719 432.316833,504.374176 
	C412.016907,519.153076 401.788544,539.116272 401.729370,564.218018 
	C401.667664,590.382080 401.733734,616.546387 401.706879,642.710632 
	C401.681335,667.558228 385.598907,683.594849 360.650940,683.662903 
	C348.985535,683.694702 337.315613,683.846313 325.655640,683.588257 
	C315.338867,683.359924 309.188904,673.892456 313.532990,665.253418 
	C316.005066,660.337158 320.185333,658.014465 325.707794,658.028076 
	C336.873322,658.055542 348.039032,658.036377 359.204651,658.030762 
	C372.050720,658.024353 376.090698,653.926147 376.093414,640.887817 
	C376.098633,615.890137 376.280853,590.890747 376.049896,565.895203 
	C375.792236,538.011597 384.928009,513.983826 404.439178,493.974152 
	C405.004669,493.394196 405.473480,492.719971 406.177948,491.856049 
	C405.128235,490.653320 404.214447,489.527740 403.219940,488.478668 
	C385.571655,469.861908 376.363434,447.734894 376.160248,422.085266 
	C375.945068,394.922791 376.112366,367.757385 376.087982,340.593262 
	C376.078400,329.910553 371.935028,325.755066 361.302368,325.725250 
	C349.303619,325.691589 337.301758,325.856201 325.307098,325.628052 
	C318.053162,325.490051 313.004456,320.776550 312.296082,314.226227 
	C311.628876,308.056854 315.468018,302.298889 321.602936,300.538361 
	C323.170227,300.088593 324.886383,300.018524 326.534912,300.013000 
	C338.866974,299.971680 351.199493,299.942078 363.531372,300.000916 
	C385.054199,300.103607 401.502228,316.390289 401.665344,338.006622 
	C401.827545,359.503326 401.707642,381.002197 401.711426,403.000122 
z"/>
<path fill="#E9F0F4" opacity="1.000000" stroke="none" 
	d="
M687.807922,763.639221 
	C684.600952,774.709961 677.161438,780.469910 666.438477,781.487671 
	C659.226257,782.172119 651.896362,781.617920 644.264282,781.617920 
	C644.264282,764.527771 644.264282,747.496887 644.264282,730.384583 
	C652.619080,730.384583 661.247742,729.105591 669.331177,730.660522 
	C684.472534,733.573181 691.452942,746.865051 687.807922,763.639221 
M681.087708,750.967957 
	C679.886963,743.082703 675.602966,737.662842 667.725525,736.094910 
	C663.219360,735.197998 658.440613,735.353088 653.816467,735.609253 
	C652.777710,735.666809 651.074524,738.100159 651.034424,739.479309 
	C650.778320,748.291565 650.901367,757.114807 650.899963,765.934448 
	C650.899414,769.189026 650.899902,772.443665 650.899902,775.925842 
	C656.500427,775.925842 661.329895,776.266479 666.092285,775.846497 
	C673.355591,775.205994 679.263367,769.888672 680.633179,762.758850 
	C681.312805,759.221375 681.032043,755.499390 681.087708,750.967957 
z"/>
<path fill="#E8EFF3" opacity="1.000000" stroke="none" 
	d="
M608.343140,744.882080 
	C610.702698,752.635193 611.066345,760.083618 608.027527,767.264343 
	C603.452209,778.075928 593.981201,783.167542 581.290466,782.097412 
	C570.701660,781.204468 562.636597,773.964966 559.794250,762.801453 
	C556.857971,751.269043 561.524048,738.535583 570.743347,732.921936 
	C580.227844,727.146851 593.517151,727.965576 601.510437,735.329346 
	C604.239441,737.843445 605.982422,741.427795 608.343140,744.882080 
M600.240662,767.526611 
	C600.983337,765.504578 601.926575,763.531555 602.434326,761.452148 
	C604.719849,752.092529 601.253845,741.891296 594.426880,737.986328 
	C587.604187,734.083923 580.536926,734.066284 574.128174,738.479004 
	C566.676697,743.609741 565.529358,751.501465 566.591980,759.855896 
	C567.610596,767.863281 571.738831,773.443726 579.743713,775.648804 
	C587.390259,777.755127 594.598999,775.035583 600.240662,767.526611 
z"/>
<path fill="#E7EEF2" opacity="1.000000" stroke="none" 
	d="
M808.834961,763.200684 
	C808.834595,765.668335 808.834412,767.666504 808.833740,769.664612 
	C808.831116,777.569214 808.277222,778.322754 800.604187,780.861206 
	C786.364502,785.572266 771.555176,779.911133 765.702026,767.519348 
	C760.368286,756.227173 763.851929,741.182861 773.436218,734.119263 
	C783.170410,726.945251 798.697388,727.619019 807.900513,735.790649 
	C806.720886,739.353394 805.226440,740.605713 801.186401,738.362488 
	C792.088501,733.310791 781.735474,734.592407 775.784241,740.872253 
	C769.893738,747.088257 768.775452,759.405762 773.358154,767.595947 
	C778.021423,775.930115 791.992554,779.533264 800.260742,774.413086 
	C801.211731,773.824158 802.132263,772.464050 802.241211,771.378662 
	C802.520447,768.597839 802.334351,765.770325 802.334351,763.591003 
	C799.734375,760.089600 791.751526,765.545105 793.170044,757.061340 
	C798.413147,757.061340 803.361023,757.061340 808.834900,757.061340 
	C808.834900,759.156128 808.834900,760.943665 808.834961,763.200684 
z"/>
<path fill="#E6EDF1" opacity="1.000000" stroke="none" 
	d="
M343.776520,776.331848 
	C340.131561,767.690918 340.131561,767.690857 330.927612,767.690674 
	C330.262299,767.690674 329.581024,767.785461 328.934143,767.676270 
	C320.509644,766.254761 314.802979,768.533875 312.837524,777.874939 
	C311.895905,782.350098 310.925140,782.277893 304.587952,781.420654 
	C307.209015,774.703369 309.743103,768.106384 312.354797,761.540161 
	C316.159973,751.973328 319.919281,742.385193 323.969727,732.922302 
	C324.565704,731.529907 326.629639,729.982300 328.061707,729.934814 
	C329.752716,729.878784 332.511383,730.950256 333.060822,732.263611 
	C339.849792,748.490540 346.319702,764.851013 352.956848,781.388550 
	C348.023438,782.921021 344.969727,781.692810 343.776520,776.331848 
M329.982574,740.691650 
	C329.556610,739.861633 329.130615,739.031555 328.462341,737.729309 
	C325.333679,746.035339 322.403870,753.813477 319.290222,762.079712 
	C326.051758,762.079712 331.796753,762.079712 338.182404,762.079712 
	C335.408478,754.903442 332.800385,748.156128 329.982574,740.691650 
z"/>
<path fill="#E7EEF2" opacity="1.000000" stroke="none" 
	d="
M279.645691,738.676453 
	C283.933594,751.980530 277.133392,761.628113 263.515503,762.156555 
	C253.311554,762.552551 253.311646,762.552551 253.313019,773.029236 
	C253.313385,775.840576 253.313065,778.651917 253.313065,781.707520 
	C250.935593,781.707520 248.996216,781.707520 246.356873,781.707520 
	C246.356873,772.982666 246.356857,764.381165 246.356857,755.779663 
	C246.356857,747.318298 246.356873,738.856934 246.356873,729.115967 
	C254.888046,729.836304 263.019196,729.919861 270.857513,731.477234 
	C274.057770,732.113037 276.623657,735.941895 279.645691,738.676453 
M273.984344,746.352600 
	C273.486176,739.178955 270.688141,736.113892 263.745087,735.394470 
	C261.445099,735.156250 259.103058,735.356445 256.788239,735.219910 
	C254.258087,735.070679 253.189072,736.074951 253.251938,738.677002 
	C253.372086,743.649231 253.219025,748.628174 253.350723,753.599792 
	C253.376694,754.580078 253.911835,756.030823 254.659164,756.432251 
	C261.249603,759.971619 272.247040,754.615601 273.984344,746.352600 
z"/>
<path fill="#E7EEF2" opacity="1.000000" stroke="none" 
	d="
M497.562256,777.466064 
	C487.805054,768.802368 485.163849,755.032043 490.717682,742.980774 
	C495.114716,733.439575 505.546051,727.693420 516.751221,729.513367 
	C521.455444,730.277405 525.886292,732.724304 531.176636,734.677673 
	C529.430725,737.245300 528.537354,738.559082 527.298584,740.380798 
	C521.149048,736.143066 514.553467,733.498596 507.522980,736.358521 
	C504.173187,737.721191 500.826477,740.305542 498.699890,743.225952 
	C493.058716,750.973145 494.344452,764.528625 500.704041,771.129272 
	C507.131958,777.800903 515.991089,777.829041 528.315186,770.789062 
	C529.274963,771.748535 530.394531,772.867676 531.473206,773.945984 
	C522.931335,783.754761 509.417206,785.029175 497.562256,777.466064 
z"/>
<path fill="#E6EDF1" opacity="1.000000" stroke="none" 
	d="
M396.401855,773.857910 
	C396.401855,776.645569 396.401855,778.955505 396.401855,781.610291 
	C393.975769,781.610291 391.942413,781.610291 389.291077,781.610291 
	C389.291077,766.410522 389.291077,751.372192 389.291077,735.878784 
	C383.612244,735.878784 378.523468,735.878784 372.929474,735.878784 
	C372.787781,733.736206 372.674530,732.023560 372.540863,730.002502 
	C386.215942,730.002502 399.439789,730.002502 412.950714,730.002502 
	C412.950714,731.825867 412.950714,733.412415 412.950714,735.618530 
	C407.657104,735.618530 402.438538,735.618530 396.401886,735.618530 
	C396.401886,748.607178 396.401886,760.993713 396.401855,773.857910 
z"/>
<path fill="#ECF2F6" opacity="1.000000" stroke="none" 
	d="
M723.001465,738.064148 
	C723.001526,735.260071 723.001526,732.946106 723.001526,730.198486 
	C725.346985,730.198486 727.390381,730.198486 729.795166,730.198486 
	C729.795166,747.168945 729.795166,764.233704 729.795166,781.618530 
	C727.650391,781.618530 725.605347,781.618530 723.001465,781.618530 
	C723.001465,767.124695 723.001465,752.839478 723.001465,738.064148 
z"/>
<path fill="#E6EDF1" opacity="1.000000" stroke="none" 
	d="
M440.466675,762.800659 
	C439.187500,761.257935 438.361053,759.730835 437.102112,757.404480 
	C444.081451,757.404480 449.667358,757.404480 455.704437,757.404480 
	C455.816956,759.002808 455.926483,760.558899 456.085358,762.816223 
	C450.783447,762.816223 445.851410,762.816223 440.466675,762.800659 
z"/>
<path fill="#46728D" opacity="1.000000" stroke="none" 
	d="
M649.081726,641.240234 
	C646.316101,641.240112 644.037659,641.240112 641.470032,641.240112 
	C641.470032,542.659668 641.470032,444.738800 641.470032,346.237061 
	C643.047546,346.109192 644.626282,345.869507 646.205017,345.869781 
	C678.535095,345.875641 710.865784,345.794067 743.194946,345.979645 
	C762.681274,346.091492 781.675049,349.148346 799.716187,356.922729 
	C832.553101,371.072968 849.304810,396.601196 851.820862,431.707336 
	C853.507568,455.243561 849.349731,477.621918 835.143250,497.157349 
	C819.775757,518.289307 797.981201,529.375366 772.982971,533.701538 
	C758.151733,536.268250 742.864319,536.393555 727.757935,537.108826 
	C717.483276,537.595276 707.167053,537.201782 696.335327,537.201782 
	C696.335327,571.923523 696.335327,606.163879 696.335327,641.240356 
	C680.394592,641.240356 664.981812,641.240356 649.081726,641.240234 
M696.145264,464.499939 
	C696.145264,474.265076 696.145264,484.030243 696.145264,493.764404 
	C714.258667,493.764404 731.809265,495.027771 749.107727,493.477234 
	C777.165405,490.962311 792.935608,476.094543 796.437256,449.924164 
	C800.428162,420.097351 788.868896,394.270844 753.465393,389.808197 
	C734.940308,387.473114 715.953674,388.798279 697.174927,388.501953 
	C696.932983,388.498138 696.684509,388.910706 696.145264,389.390259 
	C696.145264,413.920197 696.145264,438.710052 696.145264,464.499939 
z"/>
<path fill="#48738E" opacity="1.000000" stroke="none" 
	d="
M681.136719,751.414429 
	C681.032043,755.499390 681.312805,759.221375 680.633179,762.758850 
	C679.263367,769.888672 673.355591,775.205994 666.092285,775.846497 
	C661.329895,776.266479 656.500427,775.925842 650.899902,775.925842 
	C650.899902,772.443665 650.899414,769.189026 650.899963,765.934448 
	C650.901367,757.114807 650.778320,748.291565 651.034424,739.479309 
	C651.074524,738.100159 652.777710,735.666809 653.816467,735.609253 
	C658.440613,735.353088 663.219360,735.197998 667.725525,736.094910 
	C675.602966,737.662842 679.886963,743.082703 681.136719,751.414429 
z"/>
<path fill="#48738E" opacity="1.000000" stroke="none" 
	d="
M600.066406,767.861084 
	C594.598999,775.035583 587.390259,777.755127 579.743713,775.648804 
	C571.738831,773.443726 567.610596,767.863281 566.591980,759.855896 
	C565.529358,751.501465 566.676697,743.609741 574.128174,738.479004 
	C580.536926,734.066284 587.604187,734.083923 594.426880,737.986328 
	C601.253845,741.891296 604.719849,752.092529 602.434326,761.452148 
	C601.926575,763.531555 600.983337,765.504578 600.066406,767.861084 
z"/>
<path fill="#4D7791" opacity="1.000000" stroke="none" 
	d="
M330.087433,741.050293 
	C332.800385,748.156128 335.408478,754.903442 338.182404,762.079712 
	C331.796753,762.079712 326.051758,762.079712 319.290222,762.079712 
	C322.403870,753.813477 325.333679,746.035339 328.462341,737.729309 
	C329.130615,739.031555 329.556610,739.861633 330.087433,741.050293 
z"/>
<path fill="#4D7791" opacity="1.000000" stroke="none" 
	d="
M273.968140,746.759033 
	C272.247040,754.615601 261.249603,759.971619 254.659164,756.432251 
	C253.911835,756.030823 253.376694,754.580078 253.350723,753.599792 
	C253.219025,748.628174 253.372086,743.649231 253.251938,738.677002 
	C253.189072,736.074951 254.258087,735.070679 256.788239,735.219910 
	C259.103058,735.356445 261.445099,735.156250 263.745087,735.394470 
	C270.688141,736.113892 273.486176,739.178955 273.968140,746.759033 
z"/>
<path fill="#EFF4F7" opacity="1.000000" stroke="none" 
	d="
M696.145264,463.999939 
	C696.145264,438.710052 696.145264,413.920197 696.145264,389.390259 
	C696.684509,388.910706 696.932983,388.498138 697.174927,388.501953 
	C715.953674,388.798279 734.940308,387.473114 753.465393,389.808197 
	C788.868896,394.270844 800.428162,420.097351 796.437256,449.924164 
	C792.935608,476.094543 777.165405,490.962311 749.107727,493.477234 
	C731.809265,495.027771 714.258667,493.764404 696.145264,493.764404 
	C696.145264,484.030243 696.145264,474.265076 696.145264,463.999939 
z"/>
</svg>
